<svg width="290" height="129" viewBox="0 0 290 129" fill="none" xmlns="http://www.w3.org/2000/svg">
<path fill-rule="evenodd" clip-rule="evenodd" d="M159.198 19.0493V22.1118C159.198 23.9805 158.738 25.409 157.828 26.407C156.918 27.405 155.568 27.904 153.797 27.904C152.026 27.904 150.676 27.405 149.766 26.407C148.856 25.409 148.396 23.9708 148.396 22.1118V10.1164C148.396 8.24766 148.846 6.81917 149.766 5.82119C150.676 4.82321 152.026 4.32422 153.797 4.32422C155.568 4.32422 156.918 4.82321 157.828 5.82119C158.738 6.81917 159.198 8.25744 159.198 10.1164V12.357H155.773V9.88161C155.773 9.04995 155.607 8.46291 155.264 8.12046C154.922 7.77802 154.472 7.61169 153.895 7.61169C153.327 7.61169 152.867 7.77802 152.525 8.12046C152.182 8.46291 152.016 9.04995 152.016 9.88161V22.3368C152.016 23.1685 152.182 23.7555 152.525 24.0784C152.867 24.411 153.317 24.5774 153.895 24.5774C154.472 24.5774 154.922 24.411 155.264 24.0784C155.607 23.7457 155.773 23.1685 155.773 22.3368V19.0396H159.198V19.0493Z" fill="white"/>
<path fill-rule="evenodd" clip-rule="evenodd" d="M165.352 14.305H170.332V17.6022H165.352V24.3533H171.614V27.6505H161.732V4.58936H171.614V7.87682H165.352V14.305Z" fill="white"/>
<path fill-rule="evenodd" clip-rule="evenodd" d="M177.416 10.949V27.6505H174.148V4.58936H178.698L182.416 18.385V4.58936H185.645V27.6505H181.927L177.416 10.949Z" fill="white"/>
<path fill-rule="evenodd" clip-rule="evenodd" d="M187.523 4.58936H198.726V7.87682H194.939V27.6505H191.309V7.87682H187.523V4.58936Z" fill="white"/>
<path fill-rule="evenodd" clip-rule="evenodd" d="M208.216 27.6505C208.167 27.494 208.128 27.357 208.089 27.22C208.04 27.0929 208.011 26.9265 207.972 26.7211C207.942 26.5254 207.913 26.271 207.903 25.9677C207.893 25.6644 207.884 25.273 207.884 24.8132V21.193C207.884 20.1168 207.698 19.3634 207.326 18.9231C206.954 18.4828 206.347 18.2676 205.516 18.2676H204.263V27.6603H200.643V4.58936H206.113C208.001 4.58936 209.371 5.02964 210.212 5.91021C211.054 6.79078 211.484 8.12143 211.484 9.89235V11.7024C211.484 14.0702 210.692 15.6356 209.116 16.3792C210.036 16.751 210.672 17.3576 211.014 18.2089C211.357 19.0503 211.523 20.0776 211.523 21.2909V24.8523C211.523 25.4198 211.543 25.9188 211.592 26.3493C211.641 26.7798 211.748 27.2103 211.924 27.6505H208.236H208.216ZM204.263 7.87682V14.9605H205.682C206.367 14.9605 206.895 14.7844 207.277 14.4322C207.659 14.08 207.854 13.444 207.854 12.5243V10.2544C207.854 9.42272 207.707 8.8161 207.414 8.4443C207.12 8.07251 206.651 7.88661 206.015 7.88661H204.273L204.263 7.87682Z" fill="white"/>
<path fill-rule="evenodd" clip-rule="evenodd" d="M225.934 27.6505H222.275L221.649 23.4629H217.197L216.571 27.6505H213.244L216.933 4.58936H222.236L225.925 27.6505H225.934ZM217.667 20.332H221.16L219.418 8.66934L217.677 20.332H217.667Z" fill="white"/>
<path fill-rule="evenodd" clip-rule="evenodd" d="M227.94 4.58936H231.57V24.3533H237.529V27.6505H227.94V4.58936Z" fill="white"/>
<path fill-rule="evenodd" clip-rule="evenodd" d="M256.598 27.6505H252.939L252.313 23.4629H247.861L247.235 27.6505H243.908L247.597 4.58936H252.9L256.589 27.6505H256.598ZM248.331 20.332H251.824L250.082 8.66934L248.341 20.332H248.331Z" fill="white"/>
<path fill-rule="evenodd" clip-rule="evenodd" d="M258.145 10.1164C258.145 8.24765 258.585 6.81917 259.476 5.82119C260.366 4.82321 261.697 4.32422 263.477 4.32422C265.258 4.32422 266.589 4.82321 267.479 5.82119C268.369 6.81917 268.81 8.25744 268.81 10.1164V10.8404H265.385V9.8816C265.385 9.04995 265.229 8.46291 264.906 8.12046C264.583 7.77802 264.143 7.61169 263.575 7.61169C263.008 7.61169 262.558 7.77802 262.245 8.12046C261.922 8.46291 261.765 9.04995 261.765 9.8816C261.765 10.6741 261.941 11.3688 262.293 11.9754C262.646 12.582 263.086 13.1495 263.614 13.6876C264.143 14.2258 264.71 14.7639 265.307 15.302C265.914 15.8401 266.481 16.4272 267 17.0632C267.528 17.6991 267.968 18.4231 268.32 19.2352C268.673 20.0473 268.849 21.0062 268.849 22.102C268.849 23.9708 268.389 25.3992 267.479 26.3972C266.569 27.3952 265.219 27.8942 263.448 27.8942C261.677 27.8942 260.327 27.3952 259.417 26.3972C258.507 25.3992 258.047 23.961 258.047 22.102V20.6833H261.472V22.327C261.472 23.1587 261.638 23.7457 261.98 24.0686C262.323 24.4013 262.773 24.5676 263.35 24.5676C263.927 24.5676 264.377 24.4013 264.72 24.0686C265.062 23.7359 265.229 23.1587 265.229 22.327C265.229 21.5345 265.053 20.8398 264.7 20.2332C264.348 19.6266 263.908 19.0591 263.379 18.521C262.851 17.9829 262.284 17.4447 261.687 16.9066C261.08 16.3685 260.513 15.7814 259.994 15.1455C259.466 14.5095 259.026 13.7855 258.673 12.9734C258.321 12.1613 258.145 11.2025 258.145 10.1066" fill="white"/>
<path d="M274.876 4.58936H271.256V27.6505H274.876V4.58936Z" fill="white"/>
<path fill-rule="evenodd" clip-rule="evenodd" d="M289.571 27.6505H285.912L285.286 23.4629H280.834L280.208 27.6505H276.881L280.57 4.58936H285.873L289.562 27.6505H289.571ZM281.304 20.332H284.797L283.055 8.66934L281.314 20.332H281.304Z" fill="white"/>
<path fill-rule="evenodd" clip-rule="evenodd" d="M156.722 46.1615L155.411 58.4504H150.431L147.868 35.3892H151.39L153.337 53.5681L155.079 35.3892H158.572L160.382 53.7051L162.26 35.3892H165.42L162.857 58.4504H158.043L156.722 46.1615Z" fill="white"/>
<path fill-rule="evenodd" clip-rule="evenodd" d="M178.795 58.4504H175.136L174.51 54.2627H170.068L169.441 58.4504H166.115L169.803 35.3892H175.106L178.795 58.4504ZM170.527 51.1318H174.02L172.279 39.4691L170.537 51.1318H170.527Z" fill="white"/>
<path fill-rule="evenodd" clip-rule="evenodd" d="M188.384 58.4493C188.335 58.2928 188.296 58.1558 188.257 58.0188C188.208 57.8916 188.178 57.7253 188.139 57.5296C188.11 57.334 188.08 57.0796 188.071 56.7763C188.061 56.4729 188.051 56.0816 188.051 55.6217V52.0016C188.051 50.9253 187.865 50.172 187.493 49.7317C187.122 49.2914 186.515 49.0761 185.683 49.0761H184.431V58.4689H180.811V35.4077H186.28C188.168 35.4077 189.538 35.848 190.38 36.7286C191.221 37.6091 191.652 38.9398 191.652 40.7107V42.5208C191.652 44.8885 190.859 46.454 189.284 47.1976C190.204 47.5694 190.84 48.176 191.182 49.0272C191.524 49.8687 191.691 50.896 191.691 52.1092V55.6707C191.691 56.2381 191.71 56.7371 191.759 57.1676C191.798 57.5981 191.916 58.0286 192.092 58.4689H188.403L188.384 58.4493ZM184.431 38.6854V45.7691H185.85C186.535 45.7691 187.063 45.593 187.444 45.2408C187.826 44.8885 188.022 44.2526 188.022 43.3329V41.0629C188.022 40.2313 187.875 39.6247 187.581 39.2529C187.288 38.8811 186.818 38.6952 186.182 38.6952H184.441L184.431 38.6854Z" fill="white"/>
<path fill-rule="evenodd" clip-rule="evenodd" d="M198.001 45.1048H202.972V48.4021H198.001V55.1531H204.263V58.4504H194.381V35.3892H204.263V38.6864H198.001V45.1048Z" fill="white"/>
<path fill-rule="evenodd" clip-rule="evenodd" d="M210.457 58.4504H206.827V35.3892H210.457V45.2711H214.566V35.3892H218.265V58.4504H214.566V48.5684H210.457V58.4504Z" fill="white"/>
<path fill-rule="evenodd" clip-rule="evenodd" d="M220.926 40.927C220.926 39.0582 221.396 37.6297 222.345 36.6317C223.284 35.6338 224.654 35.1348 226.425 35.1348C228.196 35.1348 229.566 35.6338 230.515 36.6317C231.454 37.6297 231.933 39.068 231.933 40.927V52.9223C231.933 54.7911 231.464 56.2196 230.515 57.2176C229.566 58.2155 228.206 58.7145 226.425 58.7145C224.644 58.7145 223.284 58.2155 222.345 57.2176C221.396 56.2196 220.926 54.7813 220.926 52.9223V40.927ZM224.556 53.1474C224.556 53.979 224.723 54.566 225.065 54.9085C225.407 55.2509 225.857 55.4173 226.435 55.4173C227.012 55.4173 227.462 55.2509 227.805 54.9085C228.147 54.566 228.313 53.979 228.313 53.1474V40.6922C228.313 39.8605 228.147 39.2735 227.805 38.931C227.462 38.5886 227.012 38.4222 226.435 38.4222C225.867 38.4222 225.407 38.5886 225.065 38.931C224.723 39.2735 224.556 39.8605 224.556 40.6922V53.1474Z" fill="white"/>
<path fill-rule="evenodd" clip-rule="evenodd" d="M238.058 35.3892V53.1767C238.058 54.0084 238.224 54.5954 238.566 54.9183C238.909 55.2509 239.359 55.4075 239.936 55.4075C240.513 55.4075 240.964 55.2412 241.306 54.9183C241.648 54.5856 241.815 54.0084 241.815 53.1767V35.3892H245.239V52.9517C245.239 54.8204 244.779 56.2489 243.869 57.2469C242.959 58.2449 241.609 58.7439 239.838 58.7439C238.067 58.7439 236.717 58.2449 235.807 57.2469C234.897 56.2489 234.438 54.8107 234.438 52.9517V35.3892H238.058Z" fill="white"/>
<path fill-rule="evenodd" clip-rule="evenodd" d="M247.577 40.927C247.577 39.0582 248.018 37.6297 248.908 36.6317C249.798 35.6338 251.129 35.1348 252.91 35.1348C254.69 35.1348 256.021 35.6338 256.911 36.6317C257.802 37.6297 258.242 39.068 258.242 40.927V41.651H254.818V40.6922C254.818 39.8605 254.661 39.2735 254.338 38.931C254.015 38.5886 253.575 38.4222 253.008 38.4222C252.44 38.4222 251.99 38.5886 251.677 38.931C251.354 39.2735 251.197 39.8605 251.197 40.6922C251.197 41.4847 251.374 42.1793 251.726 42.786C252.078 43.3926 252.518 43.96 253.047 44.4982C253.575 45.0363 254.142 45.5744 254.739 46.1126C255.346 46.6507 255.913 47.2377 256.432 47.8737C256.96 48.5097 257.401 49.2337 257.753 50.0458C258.105 50.8579 258.281 51.8167 258.281 52.9125C258.281 54.7813 257.821 56.2098 256.911 57.2078C256.001 58.2057 254.651 58.7047 252.88 58.7047C251.109 58.7047 249.759 58.2057 248.849 57.2078C247.939 56.2098 247.479 54.7715 247.479 52.9125V51.4938H250.904V53.1376C250.904 53.9692 251.07 54.5563 251.413 54.8791C251.755 55.2118 252.205 55.3683 252.782 55.3683C253.36 55.3683 253.81 55.202 254.152 54.8791C254.495 54.5465 254.661 53.9692 254.661 53.1376C254.661 52.3451 254.485 51.6504 254.133 51.0438C253.78 50.4371 253.34 49.8697 252.812 49.3315C252.284 48.7934 251.716 48.2553 251.119 47.7172C250.513 47.179 249.945 46.592 249.427 45.956C248.898 45.32 248.458 44.596 248.106 43.7839C247.753 42.9719 247.577 42.013 247.577 40.9172" fill="white"/>
<path fill-rule="evenodd" clip-rule="evenodd" d="M264.308 45.1048H269.288V48.4021H264.308V55.1531H270.57V58.4504H260.688V35.3892H270.57V38.6864H264.308V45.1048Z" fill="white"/>
<path fill-rule="evenodd" clip-rule="evenodd" d="M148.23 71.7282C148.23 69.8595 148.67 68.431 149.56 67.433C150.451 66.435 151.781 65.936 153.562 65.936C155.343 65.936 156.673 66.435 157.564 67.433C158.454 68.431 158.894 69.8693 158.894 71.7282V72.4523H155.47V71.4934C155.47 70.6618 155.313 70.0747 154.991 69.7323C154.668 69.3898 154.227 69.2235 153.66 69.2235C153.092 69.2235 152.642 69.3898 152.329 69.7323C152.006 70.0747 151.85 70.6618 151.85 71.4934C151.85 72.2859 152.026 72.9806 152.378 73.5872C152.73 74.1938 153.171 74.7613 153.699 75.2994C154.227 75.8376 154.795 76.3757 155.392 76.9138C155.998 77.452 156.556 78.039 157.084 78.675C157.613 79.3109 158.053 80.035 158.405 80.847C158.757 81.6591 158.934 82.618 158.934 83.7138C158.934 85.5826 158.474 87.011 157.564 88.009C156.654 89.007 155.304 89.506 153.533 89.506C151.762 89.506 150.412 89.007 149.502 88.009C148.592 87.011 148.132 85.5728 148.132 83.7138V82.2951H151.556V83.9388C151.556 84.7705 151.723 85.3575 152.065 85.6804C152.408 86.0131 152.858 86.1696 153.435 86.1696C154.012 86.1696 154.462 86.0033 154.805 85.6804C155.147 85.3477 155.313 84.7705 155.313 83.9388C155.313 83.1463 155.137 82.4516 154.785 81.845C154.433 81.2384 153.993 80.6709 153.464 80.1328C152.936 79.5947 152.368 79.0566 151.772 78.5184C151.165 77.9803 150.597 77.3932 150.079 76.7573C149.551 76.1213 149.11 75.3973 148.758 74.5852C148.406 73.7731 148.23 72.8143 148.23 71.7185" fill="white"/>
<path fill-rule="evenodd" clip-rule="evenodd" d="M164.794 66.1895V83.977C164.794 84.8087 164.96 85.3957 165.303 85.7186C165.645 86.0512 166.095 86.2078 166.673 86.2078C167.25 86.2078 167.7 86.0415 168.042 85.7186C168.385 85.3859 168.551 84.8087 168.551 83.977V66.1895H171.976V83.752C171.976 85.6207 171.516 87.0492 170.606 88.0472C169.696 89.0452 168.346 89.5442 166.575 89.5442C164.804 89.5442 163.454 89.0452 162.544 88.0472C161.634 87.0492 161.174 85.611 161.174 83.752V66.1895H164.794Z" fill="white"/>
<path fill-rule="evenodd" clip-rule="evenodd" d="M182.454 82.5583L184.92 66.1895H189.958V89.2506H186.534V72.7155L184.029 89.2506H180.605L177.904 72.9405V89.2506H174.744V66.1895H179.783L182.454 82.5583Z" fill="white"/>
<path fill-rule="evenodd" clip-rule="evenodd" d="M200.604 82.5583L203.07 66.1895H208.109V89.2506H204.684V72.7155L202.179 89.2506H198.755L196.055 72.9405V89.2506H192.894V66.1895H197.933L200.604 82.5583Z" fill="white"/>
<path d="M214.694 66.1895H211.073V89.2506H214.694V66.1895Z" fill="white"/>
<path fill-rule="evenodd" clip-rule="evenodd" d="M216.61 66.1895H227.813V69.4867H224.027V89.2506H220.397V69.4867H216.61V66.1895Z" fill="white"/>
<path fill-rule="evenodd" clip-rule="evenodd" d="M32.6397 60.5059L25.9083 54.88L17.8657 19.2267L14.6761 16.0371L3.70806 17.4068L2.26979 28.3553L9.39264 33.4137L17.0047 38.2275L20.0769 46.3972C20.2628 46.8962 20.0084 47.4539 19.5094 47.6398C19.0104 47.8257 18.4527 47.5713 18.2668 47.0723L15.4197 39.5092L8.28703 34.9987L0.195557 29.2554L1.97627 15.675L15.361 14.002L19.6171 18.258L27.64 53.8234L33.2561 58.5197L40.5747 57.8446L44.9873 50.5457L42.5217 44.0392L34.1661 40.9768L26.5638 32.5135C26.2116 32.1222 26.2409 31.5058 26.6323 31.1535C27.0334 30.8013 27.64 30.8307 27.9923 31.222L35.2717 39.3331L43.9991 42.5325L47.1105 50.7414L41.7096 59.6841L32.6202 60.5255L32.6397 60.5059Z" fill="white"/>
<path fill-rule="evenodd" clip-rule="evenodd" d="M15.86 32.9528L1.35994 29.7534C0.841384 29.636 0.508724 29.1272 0.626133 28.6087C0.743543 28.0901 1.25232 27.7574 1.77088 27.8748L13.3259 30.4285L12.0442 24.5385C11.9268 24.0199 12.2595 23.5013 12.778 23.3937C13.2966 23.2763 13.8151 23.609 13.9228 24.1275L15.8502 32.9626L15.86 32.9528Z" fill="white"/>
<path fill-rule="evenodd" clip-rule="evenodd" d="M35.3991 53.1761L27.9436 45.7206L34.0391 39.625C34.4207 39.2532 35.0273 39.2532 35.3991 39.625C35.7709 39.9968 35.7709 40.6132 35.3991 40.985L30.6636 45.7206L35.3893 50.4463L37.2483 48.5873C37.6201 48.2057 38.2365 48.2057 38.6083 48.5873C38.9801 48.9591 38.9801 49.5755 38.6083 49.9473L35.3893 53.1663L35.3991 53.1761Z" fill="white"/>
<path fill-rule="evenodd" clip-rule="evenodd" d="M50.809 47.0521L42.6001 43.9408L39.4007 35.2134L31.2896 27.934C30.8983 27.5817 30.8591 26.9653 31.2212 26.574C31.5734 26.1826 32.1898 26.1435 32.5812 26.5055L41.0444 34.1077L44.1069 42.4634L50.6133 44.929L57.9123 40.5163L58.5874 33.1978L53.891 27.5817L18.3257 19.5587L14.0696 15.3026L15.7427 1.91796L29.3426 0.117676L35.125 8.24829L39.6062 15.332L47.1693 18.1792C47.6683 18.3651 47.9227 18.9228 47.727 19.4218C47.5411 19.9208 46.9834 20.1751 46.4844 19.9892L38.3147 16.917L33.5009 9.30497L28.4425 2.18213L17.494 3.62039L16.1242 14.5884L19.3139 17.778L54.9672 25.8206L60.5931 32.5521L59.7517 41.6415L50.8188 47.0424L50.809 47.0521Z" fill="white"/>
<path fill-rule="evenodd" clip-rule="evenodd" d="M33.0312 15.7819L24.1961 13.8544C23.6776 13.737 23.3449 13.2282 23.4623 12.7097C23.5797 12.1911 24.0885 11.8584 24.6071 11.9759L30.4971 13.2576L27.9434 1.70252C27.826 1.18396 28.1587 0.665399 28.6773 0.557774C29.1958 0.440364 29.7144 0.773025 29.822 1.29158L33.0214 15.7917L33.0312 15.7819Z" fill="white"/>
<path fill-rule="evenodd" clip-rule="evenodd" d="M49.3603 38.8234C49.1157 38.8234 48.8711 38.7256 48.6754 38.5397C48.2939 38.1581 48.2939 37.5515 48.6754 37.1797L50.5344 35.3207L45.8087 30.595L41.0732 35.3305C40.6916 35.7023 40.085 35.7023 39.7132 35.3305C39.3414 34.9587 39.3414 34.3423 39.7132 33.9705L45.8087 27.875L53.2642 35.3305L50.0452 38.5495C49.8593 38.7354 49.6147 38.8332 49.3603 38.8332" fill="white"/>
<path fill-rule="evenodd" clip-rule="evenodd" d="M109.485 110.687L105.229 106.431L97.2058 70.8657L91.5897 66.1693L84.2712 66.8444L79.8585 74.1434L82.3241 80.6498L90.6798 83.7123L98.282 92.1755C98.6343 92.5669 98.6049 93.1833 98.2135 93.5355C97.8124 93.8878 97.2058 93.8584 96.8535 93.467L89.5742 85.356L80.8467 82.1566L77.7354 73.9477L83.1362 65.005L92.2257 64.1636L98.9571 69.7894L107 105.443L110.189 108.632L121.157 107.263L122.596 96.3142L115.473 91.2558L107.861 86.442L104.788 78.2723C104.603 77.7733 104.857 77.2156 105.356 77.0297C105.855 76.8438 106.413 77.0982 106.599 77.5874L109.446 85.1505L116.578 89.661L124.66 95.4141L122.879 108.994L109.495 110.668L109.485 110.687Z" fill="white"/>
<path fill-rule="evenodd" clip-rule="evenodd" d="M111.862 101.334C111.422 101.334 111.021 101.031 110.923 100.571L108.995 91.7358L123.495 94.9352C124.014 95.0527 124.347 95.5614 124.229 96.08C124.112 96.5985 123.603 96.9312 123.085 96.8138L111.529 94.2601L112.811 100.15C112.929 100.669 112.596 101.187 112.077 101.295C112.009 101.315 111.94 101.315 111.872 101.315" fill="white"/>
<path fill-rule="evenodd" clip-rule="evenodd" d="M90.1317 85.347C89.8871 85.347 89.6425 85.2491 89.4468 85.0632C89.075 84.6914 89.075 84.075 89.4468 83.7032L94.1823 78.9677L89.4566 74.242L87.5976 76.1009C87.2258 76.4727 86.6094 76.4727 86.2376 76.1009C85.8658 75.7194 85.8658 75.1127 86.2376 74.741L89.4566 71.522L96.9121 78.9775L90.8166 85.073C90.6307 85.2589 90.3861 85.3567 90.1317 85.3567" fill="white"/>
<path fill-rule="evenodd" clip-rule="evenodd" d="M95.5122 124.571L89.7298 116.44L85.2487 109.356L77.6855 106.509C77.1866 106.323 76.9322 105.766 77.1279 105.267C77.3138 104.768 77.8714 104.513 78.3704 104.709L86.5402 107.781L91.354 115.393L96.4124 122.516L107.361 121.078L108.731 110.11L105.541 106.92L69.8876 98.8775L64.2617 92.1461L65.1032 83.0566L74.0361 77.6558L82.2449 80.7671L85.4444 89.4946L93.5554 96.774C93.9468 97.1262 93.9859 97.7426 93.6239 98.1339C93.2717 98.5253 92.6553 98.5644 92.2639 98.2024L83.8006 90.6002L80.7382 82.2445L74.2318 79.7789L66.9328 84.1916L66.2577 91.5101L70.9541 97.1262L106.519 105.149L110.775 109.405L109.102 122.79L95.522 124.571H95.5122Z" fill="white"/>
<path fill-rule="evenodd" clip-rule="evenodd" d="M95.9627 124.17C95.5224 124.17 95.1212 123.867 95.0234 123.417L91.824 108.917L100.659 110.844C101.178 110.962 101.51 111.471 101.393 111.989C101.275 112.508 100.767 112.84 100.248 112.723L94.3581 111.441L96.9117 122.996C97.0291 123.515 96.6965 124.033 96.1779 124.151C96.1094 124.17 96.0409 124.17 95.9724 124.17" fill="white"/>
<path fill-rule="evenodd" clip-rule="evenodd" d="M79.0456 96.8225L71.5901 89.367L74.8091 86.148C75.1906 85.7762 75.7973 85.7762 76.1691 86.148C76.5409 86.5198 76.5409 87.1362 76.1691 87.508L74.3101 89.367L79.0358 94.0927L83.7713 89.3572C84.1529 88.9854 84.7595 88.9854 85.1313 89.3572C85.5031 89.729 85.5031 90.3454 85.1313 90.7172L79.0358 96.8127L79.0456 96.8225Z" fill="white"/>
<path fill-rule="evenodd" clip-rule="evenodd" d="M29.3426 124.571L15.7622 122.79L14.0891 109.405L18.3452 105.149L53.9105 97.1262L58.6069 91.5101L57.9318 84.1916L50.6328 79.7789L44.1264 82.2445L41.064 90.6002L32.6007 98.2024C32.1995 98.5547 31.5929 98.5253 31.2407 98.1339C30.8885 97.7426 30.9178 97.1262 31.3092 96.774L39.4202 89.4946L42.6196 80.7671L50.8285 77.6558L59.7614 83.0566L60.6029 92.1461L54.977 98.8775L19.3236 106.92L16.134 110.11L17.5038 121.078L28.4522 122.516L33.5106 115.393L38.3244 107.781L46.4942 104.709C46.9931 104.523 47.5508 104.777 47.7367 105.267C47.9226 105.766 47.6682 106.323 47.1693 106.509L39.6061 109.356L35.0956 116.489L29.3426 124.571Z" fill="white"/>
<path fill-rule="evenodd" clip-rule="evenodd" d="M28.8925 124.17C28.824 124.17 28.7555 124.17 28.687 124.151C28.1685 124.033 27.8358 123.525 27.9532 123.006L30.5069 111.451L24.6168 112.733C24.0983 112.85 23.5797 112.518 23.4721 111.999C23.3547 111.48 23.6873 110.962 24.2059 110.854L33.041 108.927L29.8415 123.427C29.7437 123.877 29.3426 124.18 28.9023 124.18" fill="white"/>
<path fill-rule="evenodd" clip-rule="evenodd" d="M45.8087 96.8234L39.7132 90.7279C39.3414 90.3561 39.3414 89.7397 39.7132 89.3679C40.085 88.9961 40.7014 88.9961 41.0732 89.3679L45.8087 94.1034L50.5344 89.3777L48.6754 87.5187C48.2939 87.1469 48.2939 86.5305 48.6754 86.1587C49.0472 85.7869 49.6636 85.7869 50.0354 86.1587L53.2544 89.3777L45.7989 96.8332L45.8087 96.8234Z" fill="white"/>
<path fill-rule="evenodd" clip-rule="evenodd" d="M15.3712 110.687L1.98652 109.014L0.205811 95.4336L8.33642 89.6512L15.4201 85.1701L18.2673 77.6069C18.4532 77.1079 19.0109 76.8536 19.5099 77.0492C20.0089 77.2351 20.2633 77.7928 20.0774 78.2918L17.0052 86.4616L9.39311 91.2754L2.27026 96.3338L3.70853 107.282L14.6765 108.652L17.8662 105.462L25.9087 69.809L32.6402 64.1831L41.7297 65.0245L47.1305 73.9672L44.0192 82.1761L35.2917 85.3755L28.0123 93.4866C27.6601 93.8779 27.0437 93.9171 26.6523 93.5551C26.261 93.2028 26.2218 92.5864 26.5838 92.1951L34.1861 83.7318L42.5417 80.6694L45.0073 74.1629L40.5947 66.864L33.2762 66.1889L27.6601 70.8852L19.6371 106.451L15.381 110.707L15.3712 110.687Z" fill="white"/>
<path fill-rule="evenodd" clip-rule="evenodd" d="M12.9835 101.335C12.915 101.335 12.8465 101.335 12.778 101.315C12.2595 101.198 11.9268 100.689 12.0442 100.17L13.3259 94.2802L1.77088 96.8338C1.25232 96.9512 0.733759 96.6186 0.626133 96.1C0.508724 95.5815 0.841384 95.0629 1.35994 94.9553L15.86 91.7559L13.9326 100.591C13.8347 101.041 13.4336 101.354 12.9933 101.354" fill="white"/>
<path fill-rule="evenodd" clip-rule="evenodd" d="M34.724 85.347C34.4794 85.347 34.2348 85.2491 34.0391 85.0632L27.9436 78.9677L35.3991 71.5122L38.6181 74.7312C38.9899 75.103 38.9899 75.7194 38.6181 76.0912C38.2463 76.463 37.6299 76.463 37.2581 76.0912L35.3991 74.2322L30.6734 78.9579L35.4089 83.6935C35.7807 84.0653 35.7807 84.6817 35.4089 85.0534C35.223 85.2393 34.9784 85.3372 34.724 85.3372" fill="white"/>
<path fill-rule="evenodd" clip-rule="evenodd" d="M74.0458 47.0521L65.1032 41.6513L64.2617 32.5619L69.8876 25.8304L105.541 17.7878L108.731 14.5982L107.361 3.63018L96.4124 2.19191L91.354 9.31476L86.5402 16.9268L78.3704 19.999C77.8714 20.1849 77.3137 19.9305 77.1279 19.4315C76.942 18.9326 77.1963 18.3749 77.6855 18.189L85.2487 15.3418L89.7592 8.20915L95.5122 0.117676L109.093 1.89839L110.766 15.2831L106.51 19.5392L70.9443 27.5622L66.2479 33.1783L66.923 40.4968L74.222 44.9094L80.7284 42.4438L83.7908 34.0882L92.2541 26.4859C92.6455 26.1337 93.2619 26.163 93.6141 26.5544C93.9663 26.9555 93.937 27.5622 93.5456 27.9144L85.4346 35.1938L82.2352 43.9212L74.0263 47.0326L74.0458 47.0521Z" fill="white"/>
<path fill-rule="evenodd" clip-rule="evenodd" d="M91.8245 15.7819L95.0239 1.28182C95.1413 0.763259 95.6501 0.430599 96.1686 0.548008C96.6872 0.665418 97.0199 1.17419 96.9025 1.69275L94.3488 13.2478L100.239 11.9661C100.757 11.8487 101.276 12.1813 101.384 12.6999C101.501 13.2185 101.168 13.737 100.65 13.8446L91.8147 15.7721L91.8245 15.7819Z" fill="white"/>
<path fill-rule="evenodd" clip-rule="evenodd" d="M75.494 38.8235C75.2494 38.8235 75.0048 38.7256 74.8091 38.5397L71.5901 35.3207L79.0456 27.8652L85.1411 33.9607C85.5129 34.3325 85.5129 34.9489 85.1411 35.3207C84.7595 35.6925 84.1529 35.6925 83.7811 35.3207L79.0456 30.5852L74.3199 35.311L76.1788 37.1699C76.5506 37.5417 76.5506 38.1581 76.1788 38.5299C75.9929 38.7158 75.7483 38.8137 75.494 38.8137" fill="white"/>
<path fill-rule="evenodd" clip-rule="evenodd" d="M92.2154 60.5045L83.1259 59.6631L77.7251 50.7204L80.8365 42.5115L89.5639 39.3121L96.8433 31.201C97.1955 30.7999 97.8119 30.7705 98.2033 31.1325C98.5946 31.4848 98.6338 32.1012 98.2718 32.4925L90.6695 40.9558L82.3138 44.0182L79.8483 50.5247L84.2609 57.8236L91.5794 58.4987L97.1955 53.8024L105.219 18.2371L109.475 13.981L122.859 15.654L124.64 29.2344L116.509 35.0168L109.426 39.498L106.578 47.0611C106.393 47.5601 105.835 47.8145 105.336 47.6286C104.837 47.4427 104.583 46.885 104.768 46.386L107.841 38.2162L115.453 33.4025L122.566 28.3441L121.128 17.3956L110.159 16.0258L106.97 19.2155L98.9273 54.8688L92.1958 60.4947L92.2154 60.5045Z" fill="white"/>
<path fill-rule="evenodd" clip-rule="evenodd" d="M108.995 32.9528L110.923 24.1178C111.04 23.5992 111.549 23.2665 112.068 23.3839C112.586 23.5014 112.919 24.0101 112.801 24.5287L111.52 30.4187L123.075 27.8651C123.593 27.7477 124.112 28.0803 124.229 28.5989C124.347 29.1174 124.014 29.636 123.495 29.7436L108.995 32.943V32.9528Z" fill="white"/>
<path fill-rule="evenodd" clip-rule="evenodd" d="M89.4461 53.1768L86.2271 49.9578C85.8553 49.586 85.8553 48.9696 86.2271 48.5978C86.5989 48.2162 87.2153 48.2162 87.5871 48.5978L89.4461 50.4568L94.1718 45.7311L89.4363 40.9956C89.0547 40.6238 89.0547 40.0074 89.4363 39.6356C89.8081 39.254 90.4245 39.2638 90.7963 39.6356L96.8918 45.7311L89.4363 53.1866L89.4461 53.1768Z" fill="white"/>
<path fill-rule="evenodd" clip-rule="evenodd" d="M111.236 122.488L112.44 112.42L122.566 111.158L118.046 114.465L117.987 117.967L114.494 118.026L111.236 122.488Z" fill="#308738"/>
<path fill-rule="evenodd" clip-rule="evenodd" d="M111.236 2.04443L112.44 12.1123L122.566 13.3745L118.046 10.0576L117.987 6.5647L114.494 6.506L111.236 2.04443Z" fill="#308738"/>
<path fill-rule="evenodd" clip-rule="evenodd" d="M13.1696 122.488L11.9662 112.42L1.8396 111.158L6.35987 114.465L6.41857 117.967L9.91151 118.026L13.1696 122.488Z" fill="#308738"/>
<path fill-rule="evenodd" clip-rule="evenodd" d="M13.1696 2.04443L11.9662 12.1123L1.8396 13.3745L6.35987 10.0576L6.41857 6.5647L9.91151 6.506L13.1696 2.04443Z" fill="#308738"/>
<path fill-rule="evenodd" clip-rule="evenodd" d="M51.8174 123.407V109.514L62.2668 96.9507L72.7065 109.514V123.407H51.8174Z" fill="white"/>
<path fill-rule="evenodd" clip-rule="evenodd" d="M73.6747 124.366H50.8582V109.162L62.2664 95.4346L73.6747 109.162V124.366ZM52.7856 122.439H71.7473V109.866L62.2664 98.4579L52.7856 109.866V122.439Z" fill="white"/>
<path fill-rule="evenodd" clip-rule="evenodd" d="M48.9305 124.366L49.0871 107.978L41.0543 110.707L32.2192 124.366H48.9305Z" fill="#308738"/>
<path fill-rule="evenodd" clip-rule="evenodd" d="M49.0871 0L49.2534 16.3884L41.1424 13.6586L32.2192 0H49.0871Z" fill="#308738"/>
<path fill-rule="evenodd" clip-rule="evenodd" d="M75.7591 124.366L75.6025 107.978L83.6353 110.707L92.6367 124.366H75.7591Z" fill="#308738"/>
<path fill-rule="evenodd" clip-rule="evenodd" d="M75.7591 0L75.6025 16.3884L83.6353 13.6586L92.6367 0H75.7591Z" fill="#308738"/>
<path fill-rule="evenodd" clip-rule="evenodd" d="M124.611 75.6805L108.222 75.5239L110.952 83.5567L124.611 92.3918V75.6805Z" fill="#308738"/>
<path fill-rule="evenodd" clip-rule="evenodd" d="M0.244629 75.5233L16.633 75.3569L13.9033 83.468L0.244629 92.3911V75.5233Z" fill="#308738"/>
<path fill-rule="evenodd" clip-rule="evenodd" d="M124.611 48.8517L108.222 49.0083L110.952 40.9755L124.611 31.9741V48.8517Z" fill="#308738"/>
<path fill-rule="evenodd" clip-rule="evenodd" d="M0.244629 48.8517L16.633 49.0083L13.9033 40.9755L0.244629 31.9741V48.8517Z" fill="#308738"/>
<path fill-rule="evenodd" clip-rule="evenodd" d="M72.7065 0.968262V14.8519L62.2668 27.4148L51.8174 14.8519V0.968262H72.7065Z" fill="white"/>
<path fill-rule="evenodd" clip-rule="evenodd" d="M62.2664 28.9219L50.8582 15.1948V0H73.6747V15.1948L62.2664 28.9219ZM52.7856 14.5001L62.2664 25.9084L71.7473 14.5001V1.92747H52.7856V14.5001Z" fill="white"/>
<path fill-rule="evenodd" clip-rule="evenodd" d="M123.563 72.5493H109.68L97.1169 62.0998L109.68 51.6602H123.563V72.5493Z" fill="white"/>
<path fill-rule="evenodd" clip-rule="evenodd" d="M124.532 73.5173H109.337L95.6101 62.109L109.337 50.7007H124.532V73.5173ZM110.032 71.58H122.605V52.6184H110.032L98.6236 62.0992L110.032 71.58Z" fill="white"/>
<path fill-rule="evenodd" clip-rule="evenodd" d="M0.96875 51.6602H14.8524L27.4153 62.0998L14.8524 72.5493H0.96875V51.6602Z" fill="white"/>
<path fill-rule="evenodd" clip-rule="evenodd" d="M15.2045 73.5173H0V50.7007H15.2045L28.9317 62.109L15.2045 73.5173ZM1.92747 71.58H14.5001L25.9084 62.0992L14.5001 52.6184H1.92747V71.58Z" fill="white"/>
<mask id="path-71-outside-1_3340_6145" maskUnits="userSpaceOnUse" x="147.189" y="96.8257" width="121" height="25" fill="black">
<rect fill="white" x="147.189" y="96.8257" width="121" height="25"/>
<path d="M148.449 115.172V97.6617H149.968V115.237C149.968 116.583 150.242 117.654 150.791 118.451C151.351 119.237 152.234 119.63 153.441 119.63C154.647 119.63 155.524 119.237 156.074 118.451C156.634 117.654 156.914 116.583 156.914 115.237V97.6617H158.335V115.172C158.335 116.938 157.931 118.354 157.124 119.42C156.327 120.486 155.088 121.02 153.408 121.02C151.728 121.02 150.479 120.486 149.661 119.42C148.853 118.354 148.449 116.938 148.449 115.172ZM161.254 120.826V119.436L170.219 99.0509H161.674V97.6617H171.803V99.0832L162.837 119.436H171.673V120.826H161.254ZM174.77 120.826V97.6617H179.632C181.323 97.6617 182.535 98.0709 183.267 98.8893C183.999 99.7078 184.365 100.946 184.365 102.605V103.913C184.365 105.238 184.134 106.271 183.671 107.015C183.218 107.758 182.432 108.248 181.312 108.484C183.628 108.948 184.785 110.601 184.785 113.444V115.463C184.785 119.038 183.1 120.826 179.729 120.826H174.77ZM176.289 119.436H179.729C180.968 119.436 181.867 119.103 182.427 118.435C182.987 117.767 183.267 116.766 183.267 115.43V113.347C183.267 111.882 182.933 110.837 182.265 110.213C181.608 109.588 180.575 109.276 179.164 109.276H176.289V119.436ZM176.289 107.887H178.873C180.295 107.887 181.312 107.628 181.926 107.111C182.54 106.595 182.847 105.631 182.847 104.22V102.734C182.847 101.463 182.605 100.532 182.12 99.9393C181.635 99.347 180.795 99.0509 179.6 99.0509H176.289V107.887ZM187.769 120.826V97.6617H196.896V99.0509H189.288V108.388H195.604V109.777H189.288V119.436H196.896V120.826H187.769ZM199.864 120.826V97.6617H201.382V109.906L208.926 97.6617H210.509L203.902 108.452L210.945 120.826H209.362L202.965 109.938L201.382 112.458V120.826H199.864ZM213.735 120.826V97.6617H215.253V120.826H213.735ZM218.205 115.237V114.041H219.659V115.334C219.659 116.658 219.939 117.703 220.499 118.467C221.059 119.221 221.947 119.598 223.164 119.598C224.381 119.598 225.269 119.221 225.829 118.467C226.389 117.703 226.669 116.658 226.669 115.334C226.669 114.58 226.513 113.89 226.201 113.266C225.899 112.631 225.501 112.081 225.005 111.618C224.51 111.155 223.966 110.708 223.374 110.277C222.782 109.836 222.189 109.389 221.597 108.937C221.005 108.474 220.461 107.989 219.966 107.483C219.47 106.966 219.066 106.347 218.754 105.625C218.453 104.893 218.302 104.091 218.302 103.218C218.302 101.42 218.706 100.015 219.513 99.0024C220.332 97.9901 221.57 97.4786 223.229 97.4678C224.359 97.4678 225.302 97.7263 226.055 98.2432C226.809 98.7493 227.348 99.4278 227.671 100.279C227.994 101.119 228.155 102.115 228.155 103.267V103.752H226.702V103.154C226.702 101.84 226.427 100.795 225.878 100.02C225.329 99.2447 224.456 98.857 223.261 98.857C222.066 98.857 221.193 99.2393 220.644 100.004C220.095 100.769 219.82 101.808 219.82 103.122C219.82 103.875 219.971 104.575 220.272 105.221C220.585 105.857 220.989 106.411 221.484 106.885C221.979 107.348 222.523 107.801 223.115 108.242C223.708 108.673 224.3 109.12 224.892 109.583C225.485 110.035 226.028 110.514 226.524 111.021C227.019 111.527 227.418 112.141 227.719 112.862C228.032 113.584 228.188 114.375 228.188 115.237C228.188 117.003 227.778 118.408 226.96 119.453C226.142 120.497 224.887 121.02 223.196 121.02C221.506 121.02 220.251 120.497 219.433 119.453C218.614 118.408 218.205 117.003 218.205 115.237ZM230.412 99.0509V97.6617H241.364V99.0509H236.664V120.826H235.145V99.0509H230.412ZM242.248 120.826L247.32 97.6294H249.533L254.686 120.826H253.168L252.021 115.705H244.8L243.637 120.826H242.248ZM245.027 114.38H251.779L248.37 99.3901L245.027 114.38ZM257.493 120.826V97.6617H259.479L266.425 117.223V97.6617H267.815V120.826H266.118L258.882 100.182V120.826H257.493Z"/>
</mask>
<path d="M148.449 115.172V97.6617H149.968V115.237C149.968 116.583 150.242 117.654 150.791 118.451C151.351 119.237 152.234 119.63 153.441 119.63C154.647 119.63 155.524 119.237 156.074 118.451C156.634 117.654 156.914 116.583 156.914 115.237V97.6617H158.335V115.172C158.335 116.938 157.931 118.354 157.124 119.42C156.327 120.486 155.088 121.02 153.408 121.02C151.728 121.02 150.479 120.486 149.661 119.42C148.853 118.354 148.449 116.938 148.449 115.172ZM161.254 120.826V119.436L170.219 99.0509H161.674V97.6617H171.803V99.0832L162.837 119.436H171.673V120.826H161.254ZM174.77 120.826V97.6617H179.632C181.323 97.6617 182.535 98.0709 183.267 98.8893C183.999 99.7078 184.365 100.946 184.365 102.605V103.913C184.365 105.238 184.134 106.271 183.671 107.015C183.218 107.758 182.432 108.248 181.312 108.484C183.628 108.948 184.785 110.601 184.785 113.444V115.463C184.785 119.038 183.1 120.826 179.729 120.826H174.77ZM176.289 119.436H179.729C180.968 119.436 181.867 119.103 182.427 118.435C182.987 117.767 183.267 116.766 183.267 115.43V113.347C183.267 111.882 182.933 110.837 182.265 110.213C181.608 109.588 180.575 109.276 179.164 109.276H176.289V119.436ZM176.289 107.887H178.873C180.295 107.887 181.312 107.628 181.926 107.111C182.54 106.595 182.847 105.631 182.847 104.22V102.734C182.847 101.463 182.605 100.532 182.12 99.9393C181.635 99.347 180.795 99.0509 179.6 99.0509H176.289V107.887ZM187.769 120.826V97.6617H196.896V99.0509H189.288V108.388H195.604V109.777H189.288V119.436H196.896V120.826H187.769ZM199.864 120.826V97.6617H201.382V109.906L208.926 97.6617H210.509L203.902 108.452L210.945 120.826H209.362L202.965 109.938L201.382 112.458V120.826H199.864ZM213.735 120.826V97.6617H215.253V120.826H213.735ZM218.205 115.237V114.041H219.659V115.334C219.659 116.658 219.939 117.703 220.499 118.467C221.059 119.221 221.947 119.598 223.164 119.598C224.381 119.598 225.269 119.221 225.829 118.467C226.389 117.703 226.669 116.658 226.669 115.334C226.669 114.58 226.513 113.89 226.201 113.266C225.899 112.631 225.501 112.081 225.005 111.618C224.51 111.155 223.966 110.708 223.374 110.277C222.782 109.836 222.189 109.389 221.597 108.937C221.005 108.474 220.461 107.989 219.966 107.483C219.47 106.966 219.066 106.347 218.754 105.625C218.453 104.893 218.302 104.091 218.302 103.218C218.302 101.42 218.706 100.015 219.513 99.0024C220.332 97.9901 221.57 97.4786 223.229 97.4678C224.359 97.4678 225.302 97.7263 226.055 98.2432C226.809 98.7493 227.348 99.4278 227.671 100.279C227.994 101.119 228.155 102.115 228.155 103.267V103.752H226.702V103.154C226.702 101.84 226.427 100.795 225.878 100.02C225.329 99.2447 224.456 98.857 223.261 98.857C222.066 98.857 221.193 99.2393 220.644 100.004C220.095 100.769 219.82 101.808 219.82 103.122C219.82 103.875 219.971 104.575 220.272 105.221C220.585 105.857 220.989 106.411 221.484 106.885C221.979 107.348 222.523 107.801 223.115 108.242C223.708 108.673 224.3 109.12 224.892 109.583C225.485 110.035 226.028 110.514 226.524 111.021C227.019 111.527 227.418 112.141 227.719 112.862C228.032 113.584 228.188 114.375 228.188 115.237C228.188 117.003 227.778 118.408 226.96 119.453C226.142 120.497 224.887 121.02 223.196 121.02C221.506 121.02 220.251 120.497 219.433 119.453C218.614 118.408 218.205 117.003 218.205 115.237ZM230.412 99.0509V97.6617H241.364V99.0509H236.664V120.826H235.145V99.0509H230.412ZM242.248 120.826L247.32 97.6294H249.533L254.686 120.826H253.168L252.021 115.705H244.8L243.637 120.826H242.248ZM245.027 114.38H251.779L248.37 99.3901L245.027 114.38ZM257.493 120.826V97.6617H259.479L266.425 117.223V97.6617H267.815V120.826H266.118L258.882 100.182V120.826H257.493Z" fill="#308738"/>
<path d="M148.449 97.6617V97.3102H148.098V97.6617H148.449ZM149.968 97.6617H150.319V97.3102H149.968V97.6617ZM150.791 118.451L150.502 118.651L150.505 118.655L150.791 118.451ZM156.074 118.451L155.786 118.249L155.786 118.25L156.074 118.451ZM156.914 97.6617V97.3102H156.562V97.6617H156.914ZM158.335 97.6617H158.686V97.3102H158.335V97.6617ZM157.124 119.42L156.843 119.208L156.842 119.21L157.124 119.42ZM149.661 119.42L149.381 119.633L149.382 119.634L149.661 119.42ZM148.449 115.172H148.801V97.6617H148.449H148.098V115.172H148.449ZM148.449 97.6617V98.0131H149.968V97.6617V97.3102H148.449V97.6617ZM149.968 97.6617H149.616V115.237H149.968H150.319V97.6617H149.968ZM149.968 115.237H149.616C149.616 116.627 149.899 117.776 150.502 118.651L150.791 118.451L151.081 118.252C150.585 117.532 150.319 116.538 150.319 115.237H149.968ZM150.791 118.451L150.505 118.655C151.148 119.557 152.153 119.982 153.441 119.982V119.63V119.279C152.316 119.279 151.555 118.918 151.078 118.247L150.791 118.451ZM153.441 119.63V119.982C154.728 119.982 155.73 119.557 156.362 118.652L156.074 118.451L155.786 118.25C155.319 118.918 154.565 119.279 153.441 119.279V119.63ZM156.074 118.451L156.361 118.653C156.976 117.778 157.265 116.628 157.265 115.237H156.914H156.562C156.562 116.537 156.291 117.53 155.786 118.249L156.074 118.451ZM156.914 115.237H157.265V97.6617H156.914H156.562V115.237H156.914ZM156.914 97.6617V98.0131H158.335V97.6617V97.3102H156.914V97.6617ZM158.335 97.6617H157.984V115.172H158.335H158.686V97.6617H158.335ZM158.335 115.172H157.984C157.984 116.886 157.592 118.22 156.843 119.208L157.124 119.42L157.404 119.633C158.271 118.488 158.686 116.99 158.686 115.172H158.335ZM157.124 119.42L156.842 119.21C156.129 120.164 155.01 120.668 153.408 120.668V121.02V121.371C155.167 121.371 156.525 120.809 157.405 119.631L157.124 119.42ZM153.408 121.02V120.668C151.807 120.668 150.675 120.164 149.939 119.206L149.661 119.42L149.382 119.634C150.283 120.808 151.649 121.371 153.408 121.371V121.02ZM149.661 119.42L149.941 119.208C149.192 118.22 148.801 116.886 148.801 115.172H148.449H148.098C148.098 116.99 148.514 118.488 149.381 119.633L149.661 119.42ZM161.254 120.826H160.903V121.177H161.254V120.826ZM161.254 119.436L160.933 119.295L160.903 119.363V119.436H161.254ZM170.219 99.0509L170.541 99.1923L170.758 98.6994H170.219V99.0509ZM161.674 99.0509H161.323V99.4023H161.674V99.0509ZM161.674 97.6617V97.3102H161.323V97.6617H161.674ZM171.803 97.6617H172.154V97.3102H171.803V97.6617ZM171.803 99.0832L172.124 99.2248L172.154 99.1571V99.0832H171.803ZM162.837 119.436L162.516 119.295L162.299 119.788H162.837V119.436ZM171.673 119.436H172.025V119.085H171.673V119.436ZM171.673 120.826V121.177H172.025V120.826H171.673ZM161.254 120.826H161.606V119.436H161.254H160.903V120.826H161.254ZM161.254 119.436L161.576 119.578L170.541 99.1923L170.219 99.0509L169.898 98.9094L160.933 119.295L161.254 119.436ZM170.219 99.0509V98.6994H161.674V99.0509V99.4023H170.219V99.0509ZM161.674 99.0509H162.026V97.6617H161.674H161.323V99.0509H161.674ZM161.674 97.6617V98.0131H171.803V97.6617V97.3102H161.674V97.6617ZM171.803 97.6617H171.451V99.0832H171.803H172.154V97.6617H171.803ZM171.803 99.0832L171.481 98.9415L162.516 119.295L162.837 119.436L163.159 119.578L172.124 99.2248L171.803 99.0832ZM162.837 119.436V119.788H171.673V119.436V119.085H162.837V119.436ZM171.673 119.436H171.322V120.826H171.673H172.025V119.436H171.673ZM171.673 120.826V120.474H161.254V120.826V121.177H171.673V120.826ZM174.77 120.826H174.419V121.177H174.77V120.826ZM174.77 97.6617V97.3102H174.419V97.6617H174.77ZM183.671 107.015L183.372 106.829L183.371 106.832L183.671 107.015ZM181.312 108.484L181.24 108.141L181.243 108.829L181.312 108.484ZM176.289 119.436H175.937V119.788H176.289V119.436ZM182.265 110.213L182.023 110.468L182.025 110.47L182.265 110.213ZM176.289 109.276V108.925H175.937V109.276H176.289ZM176.289 107.887H175.937V108.238H176.289V107.887ZM176.289 99.0509V98.6994H175.937V99.0509H176.289ZM174.77 120.826H175.122V97.6617H174.77H174.419V120.826H174.77ZM174.77 97.6617V98.0131H179.632V97.6617V97.3102H174.77V97.6617ZM179.632 97.6617V98.0131C181.277 98.0131 182.368 98.4121 183.005 99.1237L183.267 98.8893L183.529 98.655C182.701 97.7297 181.369 97.3102 179.632 97.3102V97.6617ZM183.267 98.8893L183.005 99.1237C183.656 99.8517 184.014 100.99 184.014 102.605H184.365H184.717C184.717 100.903 184.342 99.5639 183.529 98.655L183.267 98.8893ZM184.365 102.605H184.014V103.913H184.365H184.717V102.605H184.365ZM184.365 103.913H184.014C184.014 105.203 183.787 106.163 183.373 106.829L183.671 107.015L183.969 107.2C184.48 106.38 184.717 105.272 184.717 103.913H184.365ZM183.671 107.015L183.371 106.832C182.983 107.468 182.296 107.917 181.24 108.141L181.312 108.484L181.385 108.828C182.568 108.578 183.454 108.047 183.971 107.197L183.671 107.015ZM181.312 108.484L181.243 108.829C182.329 109.046 183.111 109.533 183.629 110.273C184.153 111.021 184.434 112.066 184.434 113.444H184.785H185.137C185.137 111.978 184.839 110.775 184.205 109.87C183.566 108.957 182.611 108.386 181.381 108.14L181.312 108.484ZM184.785 113.444H184.434V115.463H184.785H185.137V113.444H184.785ZM184.785 115.463H184.434C184.434 117.201 184.024 118.44 183.266 119.244C182.511 120.044 181.355 120.474 179.729 120.474V120.826V121.177C181.474 121.177 182.846 120.713 183.777 119.726C184.704 118.743 185.137 117.3 185.137 115.463H184.785ZM179.729 120.826V120.474H174.77V120.826V121.177H179.729V120.826ZM176.289 119.436V119.788H179.729V119.436V119.085H176.289V119.436ZM179.729 119.436V119.788C181.026 119.788 182.045 119.437 182.696 118.661L182.427 118.435L182.158 118.209C181.689 118.768 180.909 119.085 179.729 119.085V119.436ZM182.427 118.435L182.696 118.661C183.331 117.904 183.618 116.806 183.618 115.43H183.267H182.915C182.915 116.725 182.643 117.631 182.158 118.209L182.427 118.435ZM183.267 115.43H183.618V113.347H183.267H182.915V115.43H183.267ZM183.267 113.347H183.618C183.618 111.842 183.277 110.678 182.505 109.956L182.265 110.213L182.025 110.47C182.589 110.997 182.915 111.922 182.915 113.347H183.267ZM182.265 110.213L182.508 109.958C181.757 109.245 180.616 108.925 179.164 108.925V109.276V109.627C180.533 109.627 181.46 109.932 182.023 110.468L182.265 110.213ZM179.164 109.276V108.925H176.289V109.276V109.627H179.164V109.276ZM176.289 109.276H175.937V119.436H176.289H176.64V109.276H176.289ZM176.289 107.887V108.238H178.873V107.887V107.535H176.289V107.887ZM178.873 107.887V108.238C180.32 108.238 181.442 107.978 182.153 107.38L181.926 107.111L181.7 106.843C181.183 107.278 180.269 107.535 178.873 107.535V107.887ZM181.926 107.111L182.153 107.38C182.889 106.76 183.198 105.66 183.198 104.22H182.847H182.496C182.496 105.602 182.191 106.429 181.7 106.843L181.926 107.111ZM182.847 104.22H183.198V102.734H182.847H182.496V104.22H182.847ZM182.847 102.734H183.198C183.198 101.431 182.952 100.402 182.392 99.7168L182.12 99.9393L181.848 100.162C182.257 100.662 182.496 101.495 182.496 102.734H182.847ZM182.12 99.9393L182.392 99.7168C181.81 99.0059 180.841 98.6994 179.6 98.6994V99.0509V99.4023C180.75 99.4023 181.46 99.6881 181.848 100.162L182.12 99.9393ZM179.6 99.0509V98.6994H176.289V99.0509V99.4023H179.6V99.0509ZM176.289 99.0509H175.937V107.887H176.289H176.64V99.0509H176.289ZM187.769 120.826H187.418V121.177H187.769V120.826ZM187.769 97.6617V97.3102H187.418V97.6617H187.769ZM196.896 97.6617H197.247V97.3102H196.896V97.6617ZM196.896 99.0509V99.4023H197.247V99.0509H196.896ZM189.288 99.0509V98.6994H188.936V99.0509H189.288ZM189.288 108.388H188.936V108.739H189.288V108.388ZM195.604 108.388H195.955V108.036H195.604V108.388ZM195.604 109.777V110.128H195.955V109.777H195.604ZM189.288 109.777V109.425H188.936V109.777H189.288ZM189.288 119.436H188.936V119.788H189.288V119.436ZM196.896 119.436H197.247V119.085H196.896V119.436ZM196.896 120.826V121.177H197.247V120.826H196.896ZM187.769 120.826H188.121V97.6617H187.769H187.418V120.826H187.769ZM187.769 97.6617V98.0131H196.896V97.6617V97.3102H187.769V97.6617ZM196.896 97.6617H196.544V99.0509H196.896H197.247V97.6617H196.896ZM196.896 99.0509V98.6994H189.288V99.0509V99.4023H196.896V99.0509ZM189.288 99.0509H188.936V108.388H189.288H189.639V99.0509H189.288ZM189.288 108.388V108.739H195.604V108.388V108.036H189.288V108.388ZM195.604 108.388H195.252V109.777H195.604H195.955V108.388H195.604ZM195.604 109.777V109.425H189.288V109.777V110.128H195.604V109.777ZM189.288 109.777H188.936V119.436H189.288H189.639V109.777H189.288ZM189.288 119.436V119.788H196.896V119.436V119.085H189.288V119.436ZM196.896 119.436H196.544V120.826H196.896H197.247V119.436H196.896ZM196.896 120.826V120.474H187.769V120.826V121.177H196.896V120.826ZM199.864 120.826H199.512V121.177H199.864V120.826ZM199.864 97.6617V97.3102H199.512V97.6617H199.864ZM201.382 97.6617H201.733V97.3102H201.382V97.6617ZM201.382 109.906H201.031V111.146L201.681 110.09L201.382 109.906ZM208.926 97.6617V97.3102H208.729L208.626 97.4773L208.926 97.6617ZM210.509 97.6617L210.808 97.8452L211.136 97.3102H210.509V97.6617ZM203.902 108.452L203.602 108.269L203.494 108.446L203.597 108.626L203.902 108.452ZM210.945 120.826V121.177H211.549L211.25 120.652L210.945 120.826ZM209.362 120.826L209.059 121.004L209.161 121.177H209.362V120.826ZM202.965 109.938L203.268 109.76L202.975 109.262L202.667 109.751L202.965 109.938ZM201.382 112.458L201.084 112.271L201.031 112.357V112.458H201.382ZM201.382 120.826V121.177H201.733V120.826H201.382ZM199.864 120.826H200.215V97.6617H199.864H199.512V120.826H199.864ZM199.864 97.6617V98.0131H201.382V97.6617V97.3102H199.864V97.6617ZM201.382 97.6617H201.031V109.906H201.382H201.733V97.6617H201.382ZM201.382 109.906L201.681 110.09L209.225 97.846L208.926 97.6617L208.626 97.4773L201.083 109.722L201.382 109.906ZM208.926 97.6617V98.0131H210.509V97.6617V97.3102H208.926V97.6617ZM210.509 97.6617L210.209 97.4782L203.602 108.269L203.902 108.452L204.202 108.636L210.808 97.8452L210.509 97.6617ZM203.902 108.452L203.597 108.626L210.639 121L210.945 120.826L211.25 120.652L204.207 108.278L203.902 108.452ZM210.945 120.826V120.474H209.362V120.826V121.177H210.945V120.826ZM209.362 120.826L209.665 120.648L203.268 109.76L202.965 109.938L202.662 110.116L209.059 121.004L209.362 120.826ZM202.965 109.938L202.667 109.751L201.084 112.271L201.382 112.458L201.68 112.645L203.263 110.125L202.965 109.938ZM201.382 112.458H201.031V120.826H201.382H201.733V112.458H201.382ZM201.382 120.826V120.474H199.864V120.826V121.177H201.382V120.826ZM213.735 120.826H213.383V121.177H213.735V120.826ZM213.735 97.6617V97.3102H213.383V97.6617H213.735ZM215.253 97.6617H215.605V97.3102H215.253V97.6617ZM215.253 120.826V121.177H215.605V120.826H215.253ZM213.735 120.826H214.086V97.6617H213.735H213.383V120.826H213.735ZM213.735 97.6617V98.0131H215.253V97.6617V97.3102H213.735V97.6617ZM215.253 97.6617H214.902V120.826H215.253H215.605V97.6617H215.253ZM215.253 120.826V120.474H213.735V120.826V121.177H215.253V120.826ZM218.205 114.041V113.69H217.853V114.041H218.205ZM219.659 114.041H220.01V113.69H219.659V114.041ZM220.499 118.467L220.215 118.675L220.217 118.677L220.499 118.467ZM225.829 118.467L226.111 118.677L226.113 118.675L225.829 118.467ZM226.201 113.266L225.883 113.417L225.886 113.423L226.201 113.266ZM225.005 111.618L225.245 111.362L225.005 111.618ZM223.374 110.277L223.164 110.559L223.167 110.562L223.374 110.277ZM221.597 108.937L221.381 109.214L221.384 109.216L221.597 108.937ZM219.966 107.483L219.712 107.726L219.714 107.729L219.966 107.483ZM218.754 105.625L218.429 105.759L218.432 105.765L218.754 105.625ZM219.513 99.0024L219.24 98.7815L219.239 98.7832L219.513 99.0024ZM223.229 97.4678V97.1164L223.226 97.1164L223.229 97.4678ZM226.055 98.2432L225.857 98.533L225.86 98.535L226.055 98.2432ZM227.671 100.279L227.342 100.403L227.343 100.405L227.671 100.279ZM228.155 103.752V104.103H228.507V103.752H228.155ZM226.702 103.752H226.35V104.103H226.702V103.752ZM220.272 105.221L219.954 105.37L219.957 105.376L220.272 105.221ZM221.484 106.885L221.241 107.139L221.244 107.142L221.484 106.885ZM223.115 108.242L222.905 108.524L222.909 108.526L223.115 108.242ZM224.892 109.583L224.676 109.86L224.679 109.862L224.892 109.583ZM227.719 112.862L227.395 112.998L227.397 113.002L227.719 112.862ZM218.205 115.237H218.556V114.041H218.205H217.853V115.237H218.205ZM218.205 114.041V114.393H219.659V114.041V113.69H218.205V114.041ZM219.659 114.041H219.307V115.334H219.659H220.01V114.041H219.659ZM219.659 115.334H219.307C219.307 116.704 219.597 117.83 220.215 118.675L220.499 118.467L220.782 118.26C220.281 117.575 220.01 116.612 220.01 115.334H219.659ZM220.499 118.467L220.217 118.677C220.862 119.545 221.872 119.949 223.164 119.949V119.598V119.247C222.022 119.247 221.255 118.897 220.781 118.258L220.499 118.467ZM223.164 119.598V119.949C224.456 119.949 225.466 119.545 226.111 118.677L225.829 118.467L225.547 118.258C225.072 118.897 224.306 119.247 223.164 119.247V119.598ZM225.829 118.467L226.113 118.675C226.731 117.83 227.021 116.704 227.021 115.334H226.669H226.318C226.318 116.612 226.047 117.575 225.546 118.26L225.829 118.467ZM226.669 115.334H227.021C227.021 114.53 226.854 113.786 226.515 113.109L226.201 113.266L225.886 113.423C226.172 113.995 226.318 114.63 226.318 115.334H226.669ZM226.201 113.266L226.518 113.115C226.199 112.441 225.774 111.856 225.245 111.362L225.005 111.618L224.765 111.875C225.227 112.307 225.6 112.82 225.883 113.417L226.201 113.266ZM225.005 111.618L225.245 111.362C224.739 110.888 224.184 110.432 223.581 109.993L223.374 110.277L223.167 110.562C223.749 110.985 224.281 111.422 224.765 111.875L225.005 111.618ZM223.374 110.277L223.584 109.996C222.993 109.555 222.402 109.109 221.81 108.657L221.597 108.937L221.384 109.216C221.977 109.669 222.571 110.117 223.164 110.559L223.374 110.277ZM221.597 108.937L221.814 108.66C221.233 108.206 220.701 107.732 220.217 107.237L219.966 107.483L219.714 107.729C220.221 108.247 220.777 108.742 221.381 109.214L221.597 108.937ZM219.966 107.483L220.219 107.24C219.756 106.756 219.374 106.173 219.077 105.486L218.754 105.625L218.432 105.765C218.759 106.521 219.185 107.176 219.712 107.726L219.966 107.483ZM218.754 105.625L219.079 105.492C218.797 104.806 218.653 104.05 218.653 103.218H218.302H217.95C217.95 104.132 218.108 104.98 218.429 105.759L218.754 105.625ZM218.302 103.218H218.653C218.653 101.469 219.046 100.151 219.788 99.2216L219.513 99.0024L219.239 98.7832C218.365 99.878 217.95 101.371 217.95 103.218H218.302ZM219.513 99.0024L219.787 99.2234C220.521 98.3146 221.646 97.8295 223.231 97.8192L223.229 97.4678L223.226 97.1164C221.494 97.1277 220.142 97.6657 219.24 98.7815L219.513 99.0024ZM223.229 97.4678V97.8193C224.305 97.8193 225.174 98.0649 225.857 98.533L226.055 98.2432L226.254 97.9534C225.429 97.3877 224.413 97.1164 223.229 97.1164V97.4678ZM226.055 98.2432L225.86 98.535C226.553 99.0004 227.045 99.6204 227.342 100.403L227.671 100.279L227.999 100.154C227.65 99.2351 227.066 98.4983 226.251 97.9514L226.055 98.2432ZM227.671 100.279L227.343 100.405C227.647 101.195 227.804 102.146 227.804 103.267H228.155H228.507C228.507 102.083 228.341 101.042 227.999 100.152L227.671 100.279ZM228.155 103.267H227.804V103.752H228.155H228.507V103.267H228.155ZM228.155 103.752V103.4H226.702V103.752V104.103H228.155V103.752ZM226.702 103.752H227.053V103.154H226.702H226.35V103.752H226.702ZM226.702 103.154H227.053C227.053 101.794 226.769 100.671 226.164 99.8169L225.878 100.02L225.591 100.223C226.085 100.92 226.35 101.886 226.35 103.154H226.702ZM225.878 100.02L226.164 99.8169C225.532 98.9246 224.537 98.5056 223.261 98.5056V98.857V99.2084C224.375 99.2084 225.125 99.5648 225.591 100.223L225.878 100.02ZM223.261 98.857V98.5056C221.986 98.5056 220.991 98.9179 220.359 99.7989L220.644 100.004L220.929 100.209C221.395 99.5607 222.145 99.2084 223.261 99.2084V98.857ZM220.644 100.004L220.359 99.7989C219.752 100.643 219.469 101.762 219.469 103.122H219.82H220.172C220.172 101.853 220.437 100.894 220.929 100.209L220.644 100.004ZM219.82 103.122H219.469C219.469 103.924 219.63 104.675 219.954 105.37L220.272 105.221L220.591 105.073C220.312 104.476 220.172 103.827 220.172 103.122H219.82ZM220.272 105.221L219.957 105.376C220.287 106.048 220.715 106.636 221.241 107.139L221.484 106.885L221.727 106.631C221.262 106.187 220.883 105.666 220.588 105.066L220.272 105.221ZM221.484 106.885L221.244 107.142C221.75 107.615 222.304 108.075 222.905 108.524L223.115 108.242L223.326 107.96C222.743 107.526 222.209 107.082 221.724 106.629L221.484 106.885ZM223.115 108.242L222.909 108.526C223.498 108.955 224.087 109.399 224.676 109.86L224.892 109.583L225.109 109.306C224.513 108.841 223.918 108.391 223.322 107.958L223.115 108.242ZM224.892 109.583L224.679 109.862C225.259 110.305 225.79 110.773 226.273 111.266L226.524 111.021L226.775 110.775C226.267 110.256 225.711 109.766 225.106 109.304L224.892 109.583ZM226.524 111.021L226.273 111.266C226.734 111.738 227.109 112.313 227.395 112.998L227.719 112.862L228.043 112.727C227.727 111.968 227.305 111.316 226.775 110.775L226.524 111.021ZM227.719 112.862L227.397 113.002C227.688 113.675 227.836 114.418 227.836 115.237H228.188H228.539C228.539 114.332 228.375 113.492 228.042 112.722L227.719 112.862ZM228.188 115.237H227.836C227.836 116.95 227.439 118.271 226.683 119.236L226.96 119.453L227.237 119.669C228.117 118.545 228.539 117.055 228.539 115.237H228.188ZM226.96 119.453L226.683 119.236C225.949 120.173 224.811 120.668 223.196 120.668V121.02V121.371C224.963 121.371 226.334 120.822 227.237 119.669L226.96 119.453ZM223.196 121.02V120.668C221.581 120.668 220.443 120.173 219.709 119.236L219.433 119.453L219.156 119.669C220.059 120.822 221.43 121.371 223.196 121.371V121.02ZM219.433 119.453L219.709 119.236C218.953 118.271 218.556 116.95 218.556 115.237H218.205H217.853C217.853 117.055 218.275 118.545 219.156 119.669L219.433 119.453ZM230.412 99.0509H230.061V99.4023H230.412V99.0509ZM230.412 97.6617V97.3102H230.061V97.6617H230.412ZM241.364 97.6617H241.716V97.3102H241.364V97.6617ZM241.364 99.0509V99.4023H241.716V99.0509H241.364ZM236.664 99.0509V98.6994H236.312V99.0509H236.664ZM236.664 120.826V121.177H237.015V120.826H236.664ZM235.145 120.826H234.794V121.177H235.145V120.826ZM235.145 99.0509H235.497V98.6994H235.145V99.0509ZM230.412 99.0509H230.764V97.6617H230.412H230.061V99.0509H230.412ZM230.412 97.6617V98.0131H241.364V97.6617V97.3102H230.412V97.6617ZM241.364 97.6617H241.013V99.0509H241.364H241.716V97.6617H241.364ZM241.364 99.0509V98.6994H236.664V99.0509V99.4023H241.364V99.0509ZM236.664 99.0509H236.312V120.826H236.664H237.015V99.0509H236.664ZM236.664 120.826V120.474H235.145V120.826V121.177H236.664V120.826ZM235.145 120.826H235.497V99.0509H235.145H234.794V120.826H235.145ZM235.145 99.0509V98.6994H230.412V99.0509V99.4023H235.145V99.0509ZM242.248 120.826L241.905 120.751L241.812 121.177H242.248V120.826ZM247.32 97.6294V97.2779H247.038L246.977 97.5543L247.32 97.6294ZM249.533 97.6294L249.877 97.5532L249.815 97.2779H249.533V97.6294ZM254.686 120.826V121.177H255.124L255.029 120.749L254.686 120.826ZM253.168 120.826L252.825 120.902L252.887 121.177H253.168V120.826ZM252.021 115.705L252.364 115.628L252.302 115.354H252.021V115.705ZM244.8 115.705V115.354H244.52L244.458 115.627L244.8 115.705ZM243.637 120.826V121.177H243.918L243.98 120.904L243.637 120.826ZM245.027 114.38L244.684 114.304L244.588 114.732H245.027V114.38ZM251.779 114.38V114.732H252.219L252.121 114.303L251.779 114.38ZM248.37 99.3901L248.713 99.3122L248.027 99.3136L248.37 99.3901ZM242.248 120.826L242.592 120.901L247.664 97.7044L247.32 97.6294L246.977 97.5543L241.905 120.751L242.248 120.826ZM247.32 97.6294V97.9808H249.533V97.6294V97.2779H247.32V97.6294ZM249.533 97.6294L249.19 97.7056L254.343 120.902L254.686 120.826L255.029 120.749L249.877 97.5532L249.533 97.6294ZM254.686 120.826V120.474H253.168V120.826V121.177H254.686V120.826ZM253.168 120.826L253.511 120.749L252.364 115.628L252.021 115.705L251.678 115.782L252.825 120.902L253.168 120.826ZM252.021 115.705V115.354H244.8V115.705V116.056H252.021V115.705ZM244.8 115.705L244.458 115.627L243.295 120.748L243.637 120.826L243.98 120.904L245.143 115.783L244.8 115.705ZM243.637 120.826V120.474H242.248V120.826V121.177H243.637V120.826ZM245.027 114.38V114.732H251.779V114.38V114.029H245.027V114.38ZM251.779 114.38L252.121 114.303L248.713 99.3122L248.37 99.3901L248.028 99.468L251.436 114.458L251.779 114.38ZM248.37 99.3901L248.027 99.3136L244.684 114.304L245.027 114.38L245.37 114.457L248.713 99.4666L248.37 99.3901ZM257.493 120.826H257.141V121.177H257.493V120.826ZM257.493 97.6617V97.3102H257.141V97.6617H257.493ZM259.479 97.6617L259.811 97.5441L259.728 97.3102H259.479V97.6617ZM266.425 117.223L266.094 117.341L266.777 117.223H266.425ZM266.425 97.6617V97.3102H266.074V97.6617H266.425ZM267.815 97.6617H268.166V97.3102H267.815V97.6617ZM267.815 120.826V121.177H268.166V120.826H267.815ZM266.118 120.826L265.787 120.942L265.869 121.177H266.118V120.826ZM258.882 100.182L259.213 100.065L258.53 100.182H258.882ZM258.882 120.826V121.177H259.233V120.826H258.882ZM257.493 120.826H257.844V97.6617H257.493H257.141V120.826H257.493ZM257.493 97.6617V98.0131H259.479V97.6617V97.3102H257.493V97.6617ZM259.479 97.6617L259.148 97.7793L266.094 117.341L266.425 117.223L266.757 117.106L259.811 97.5441L259.479 97.6617ZM266.425 117.223H266.777V97.6617H266.425H266.074V117.223H266.425ZM266.425 97.6617V98.0131H267.815V97.6617V97.3102H266.425V97.6617ZM267.815 97.6617H267.463V120.826H267.815H268.166V97.6617H267.815ZM267.815 120.826V120.474H266.118V120.826V121.177H267.815V120.826ZM266.118 120.826L266.45 120.709L259.213 100.065L258.882 100.182L258.55 100.298L265.787 120.942L266.118 120.826ZM258.882 100.182H258.53V120.826H258.882H259.233V100.182H258.882ZM258.882 120.826V120.474H257.493V120.826V121.177H258.882V120.826Z" fill="#308738" mask="url(#path-71-outside-1_3340_6145)"/>
</svg>
